<svg id="svg" version="1.1" xmlns="http://www.w3.org/2000/svg" xmlns:xlink="http://www.w3.org/1999/xlink" width="400" height="400" viewBox="0, 0, 400,400"><g id="svgg"><path id="path0" d="M188.200 68.782 C 186.660 69.601,184.950 70.403,184.400 70.563 C 180.573 71.677,179.405 71.888,171.900 72.816 C 170.195 73.027,167.405 73.375,165.700 73.589 C 163.995 73.803,160.980 74.173,159.000 74.411 C 157.020 74.649,154.005 75.013,152.300 75.222 C 150.595 75.430,147.805 75.762,146.100 75.960 C 135.619 77.179,127.726 80.238,119.960 86.090 C 111.978 92.104,105.279 101.724,102.471 111.200 C 101.307 115.130,100.857 117.479,100.597 121.000 C 100.227 126.000,100.279 125.892,98.102 126.133 C 94.030 126.582,93.291 126.789,89.803 128.449 C 82.353 131.997,77.746 143.849,81.235 150.495 C 81.436 150.877,81.600 151.380,81.600 151.614 C 81.600 153.643,88.434 160.800,90.372 160.800 C 90.607 160.800,90.800 160.941,90.800 161.113 C 90.800 161.544,93.557 162.264,97.577 162.881 C 101.367 163.463,100.850 162.859,101.959 168.000 C 102.542 170.705,103.189 173.139,103.605 174.200 C 103.778 174.640,104.136 175.630,104.400 176.400 C 109.761 192.012,123.588 207.379,138.800 214.631 C 144.342 217.273,143.786 216.737,143.920 219.569 C 144.039 222.071,144.089 222.169,147.920 227.473 C 150.054 230.428,152.430 233.721,153.200 234.791 C 153.970 235.862,157.120 240.182,160.200 244.392 C 163.280 248.602,166.340 252.846,167.000 253.823 C 168.631 256.239,168.814 256.130,173.099 250.200 C 176.456 245.554,178.812 242.322,183.595 235.800 C 184.401 234.700,186.982 231.163,189.331 227.939 L 193.600 222.078 193.619 219.539 L 193.637 217.000 199.119 214.294 C 218.085 204.929,232.231 186.379,235.984 165.952 L 236.471 163.304 240.135 162.831 C 242.151 162.571,244.160 162.210,244.600 162.030 C 250.566 159.581,254.050 156.096,256.423 150.200 C 257.591 147.301,257.582 141.373,256.406 138.600 C 256.220 138.160,255.828 137.215,255.536 136.500 C 255.244 135.785,254.869 135.200,254.702 135.200 C 254.536 135.200,254.400 134.960,254.400 134.666 C 254.400 133.818,249.164 128.999,247.400 128.223 C 244.040 126.744,243.870 126.698,239.400 126.078 L 237.400 125.800 237.148 120.200 C 236.614 108.350,234.632 100.800,232.054 100.800 C 230.624 100.800,222.485 97.514,218.406 95.290 C 215.956 93.954,211.241 90.940,210.800 90.428 C 210.690 90.300,209.880 89.659,209.000 89.003 C 203.234 84.708,194.895 74.798,192.265 69.117 C 191.330 67.097,191.364 67.099,188.200 68.782 M137.200 106.557 C 144.998 108.227,152.089 112.136,152.639 115.066 C 153.344 118.824,150.121 119.985,146.203 117.384 C 137.277 111.460,125.797 111.307,117.012 116.995 C 113.120 119.515,110.378 119.432,109.795 116.777 C 109.535 115.593,110.189 113.200,110.773 113.200 C 110.925 113.200,111.432 112.843,111.901 112.406 C 117.034 107.624,129.128 104.828,137.200 106.557 M211.669 106.432 C 216.743 107.461,221.695 109.562,225.316 112.223 C 230.511 116.041,226.790 121.299,221.472 117.654 C 216.865 114.496,211.529 112.800,206.200 112.800 C 200.871 112.800,195.535 114.496,190.928 117.654 C 187.260 120.168,183.457 118.231,184.967 114.618 C 185.565 113.186,188.625 110.909,192.200 109.235 C 195.212 107.825,196.258 107.479,200.600 106.459 C 202.842 105.932,209.127 105.917,211.669 106.432 M135.029 125.656 C 141.469 128.683,142.763 136.688,137.570 141.379 C 128.753 149.345,116.216 137.138,124.062 128.225 C 126.990 124.898,131.280 123.893,135.029 125.656 M209.000 125.200 C 209.136 125.420,209.564 125.600,209.952 125.600 C 211.054 125.600,214.031 128.385,214.846 130.178 C 218.471 138.159,210.286 146.771,202.538 143.129 C 192.945 138.619,195.890 124.930,206.476 124.823 C 207.728 124.810,208.864 124.980,209.000 125.200 M187.594 186.100 C 187.571 192.957,181.450 200.222,173.572 202.743 C 163.591 205.936,150.728 197.294,150.069 186.953 L 149.907 184.400 168.753 184.400 L 187.600 184.400 187.594 186.100 " stroke="none" fill="#fac9a8" fill-rule="evenodd"></path><path id="path1" d="M134.800 227.847 C 130.070 231.036,125.965 233.877,125.678 234.159 C 125.159 234.669,125.311 235.326,126.798 239.000 C 126.976 239.440,127.517 240.880,128.000 242.200 C 128.483 243.520,129.040 245.005,129.239 245.500 C 129.438 245.995,129.780 246.850,130.000 247.400 C 130.220 247.950,130.562 248.805,130.761 249.300 C 130.960 249.795,131.517 251.280,132.000 252.600 C 132.483 253.920,133.040 255.405,133.239 255.900 C 133.438 256.395,133.762 257.205,133.961 257.700 C 134.160 258.195,134.685 259.590,135.130 260.800 C 135.574 262.010,136.680 264.966,137.588 267.368 C 138.495 269.771,139.869 273.461,140.641 275.568 C 141.413 277.676,142.197 279.760,142.383 280.200 C 142.570 280.640,143.117 282.080,143.600 283.400 C 144.772 286.604,145.272 287.896,146.306 290.400 C 146.533 290.950,146.936 292.030,147.200 292.800 C 147.464 293.570,147.867 294.650,148.094 295.200 C 148.654 296.555,148.972 297.389,150.000 300.200 C 150.870 302.579,151.251 303.562,151.975 305.300 C 152.181 305.795,153.542 309.440,154.999 313.400 C 158.624 323.249,159.222 324.859,159.639 325.900 C 159.838 326.395,160.180 327.250,160.400 327.800 C 160.620 328.350,160.962 329.205,161.161 329.700 C 161.360 330.195,161.917 331.680,162.400 333.000 C 163.428 335.811,163.746 336.645,164.306 338.000 C 164.533 338.550,164.936 339.630,165.200 340.400 C 165.464 341.170,165.826 342.160,166.004 342.600 C 166.396 343.570,166.730 344.452,167.582 346.772 C 168.295 348.712,169.067 349.279,169.436 348.133 C 169.744 347.178,170.402 345.580,170.847 344.705 C 171.041 344.323,171.200 343.736,171.200 343.400 C 171.200 343.064,171.359 342.477,171.553 342.095 C 171.879 341.454,172.193 340.713,173.161 338.300 C 173.360 337.805,173.882 336.410,174.323 335.200 C 174.763 333.990,175.570 331.830,176.116 330.400 C 176.662 328.970,178.038 325.280,179.174 322.200 C 180.310 319.120,181.393 316.240,181.581 315.800 C 181.768 315.360,182.317 313.920,182.800 312.600 C 183.283 311.280,183.840 309.795,184.039 309.300 C 184.238 308.805,184.562 307.995,184.761 307.500 C 184.960 307.005,185.517 305.520,186.000 304.200 C 187.102 301.188,187.369 300.492,188.000 299.000 C 188.656 297.447,189.010 296.519,189.600 294.800 C 189.864 294.030,190.267 292.950,190.494 292.400 C 191.045 291.067,191.370 290.215,192.327 287.600 C 193.730 283.768,196.850 275.432,197.193 274.600 C 197.374 274.160,197.917 272.720,198.400 271.400 C 198.883 270.080,199.423 268.640,199.600 268.200 C 199.777 267.760,200.317 266.320,200.800 265.000 C 201.902 261.988,202.169 261.292,202.800 259.800 C 203.431 258.308,203.698 257.612,204.800 254.600 C 205.283 253.280,205.840 251.795,206.039 251.300 C 206.238 250.805,206.562 249.995,206.761 249.500 C 206.960 249.005,207.517 247.520,208.000 246.200 C 208.483 244.880,209.024 243.440,209.202 243.000 C 211.564 237.167,212.351 234.583,211.894 234.160 C 211.202 233.521,194.122 222.000,193.866 222.000 C 193.751 222.000,191.723 224.655,189.359 227.900 C 186.995 231.145,184.401 234.700,183.595 235.800 C 178.812 242.322,176.456 245.554,173.099 250.200 C 168.785 256.171,168.640 256.253,166.919 253.700 C 166.215 252.655,163.193 248.470,160.206 244.400 C 157.218 240.330,154.068 236.010,153.207 234.800 C 147.893 227.335,144.087 222.232,143.768 222.146 C 143.566 222.092,139.530 224.657,134.800 227.847 " stroke="none" fill="#99bce7" fill-rule="evenodd"></path><path id="path2" d="M124.000 235.082 C 123.670 235.186,122.770 235.547,122.000 235.883 C 121.230 236.220,120.015 236.744,119.300 237.047 C 118.585 237.351,117.370 237.870,116.600 238.200 C 115.830 238.530,114.570 239.070,113.800 239.400 C 113.030 239.730,111.815 240.251,111.100 240.557 C 110.385 240.863,108.760 241.583,107.488 242.157 C 106.217 242.731,105.012 243.200,104.812 243.200 C 103.942 243.200,104.020 244.108,104.988 245.258 C 105.563 245.942,105.980 246.547,105.916 246.605 C 105.852 246.662,103.910 247.833,101.600 249.208 C 94.150 253.641,87.876 258.198,83.530 262.333 C 81.897 263.885,81.500 264.080,80.410 263.862 C 79.698 263.720,79.257 263.768,79.384 263.975 C 79.508 264.174,78.752 265.241,77.704 266.345 C 72.662 271.661,71.600 272.861,71.600 273.246 C 71.600 273.475,70.880 274.354,70.000 275.200 C 69.120 276.046,68.400 276.843,68.400 276.972 C 68.400 277.102,67.860 277.772,67.200 278.463 C 66.540 279.154,66.000 279.962,66.000 280.259 C 66.000 280.557,65.850 280.800,65.668 280.800 C 65.485 280.800,65.080 281.295,64.768 281.900 C 64.455 282.505,63.885 283.349,63.500 283.775 C 63.115 284.202,62.800 284.787,62.800 285.075 C 62.800 285.364,62.620 285.600,62.400 285.600 C 62.180 285.600,62.000 285.945,62.000 286.367 C 62.000 286.788,61.834 287.193,61.630 287.267 C 61.427 287.340,61.202 287.670,61.130 288.000 C 61.059 288.330,60.887 288.690,60.749 288.800 C 60.281 289.174,57.600 295.120,57.600 295.785 C 57.600 296.149,57.420 296.336,57.200 296.200 C 56.973 296.060,56.800 296.396,56.800 296.976 C 56.800 297.539,56.620 298.000,56.400 298.000 C 56.180 298.000,56.000 298.360,56.000 298.800 C 56.000 299.240,55.820 299.600,55.600 299.600 C 55.380 299.600,55.200 300.140,55.200 300.800 C 55.200 301.460,55.020 302.000,54.800 302.000 C 54.580 302.000,54.400 302.540,54.400 303.200 C 54.400 303.860,54.220 304.400,54.000 304.400 C 53.780 304.400,53.600 304.940,53.600 305.600 C 53.600 306.260,53.420 306.800,53.200 306.800 C 52.980 306.800,52.800 307.340,52.800 308.000 C 52.800 308.660,52.620 309.200,52.400 309.200 C 52.180 309.200,52.000 309.819,52.000 310.576 C 52.000 311.333,51.820 312.064,51.600 312.200 C 51.380 312.336,51.200 313.247,51.200 314.224 C 51.200 315.201,51.020 316.000,50.800 316.000 C 50.578 316.000,50.400 317.059,50.400 318.376 C 50.400 319.683,50.220 320.864,50.000 321.000 C 49.739 321.162,49.600 332.804,49.600 354.624 L 49.600 388.000 152.800 388.000 L 256.000 388.000 256.000 378.200 L 256.000 368.400 260.600 368.400 L 265.200 368.400 265.200 367.066 C 265.200 358.064,274.633 349.600,284.666 349.600 L 288.000 349.600 288.000 337.400 C 288.000 330.690,287.865 325.200,287.700 325.200 C 287.535 325.200,286.466 326.865,285.325 328.900 C 283.409 332.315,282.547 333.906,279.954 338.800 C 279.429 339.790,278.910 340.690,278.800 340.800 C 278.690 340.910,277.960 342.248,277.178 343.774 C 275.069 347.889,274.525 347.692,273.940 342.600 C 273.763 341.060,273.446 338.540,273.236 337.000 C 272.849 334.167,272.231 329.552,271.604 324.800 C 271.415 323.370,271.067 320.805,270.830 319.100 C 270.594 317.395,270.220 314.650,270.000 313.000 C 269.780 311.350,269.413 308.605,269.184 306.900 C 268.379 300.904,268.300 299.534,268.708 298.671 C 268.934 298.192,269.336 297.170,269.600 296.400 C 269.864 295.630,270.267 294.550,270.494 294.000 C 270.721 293.450,271.084 292.550,271.300 292.000 C 271.516 291.450,271.852 290.687,272.047 290.305 C 272.241 289.923,272.400 289.284,272.400 288.885 C 272.400 288.486,272.549 287.989,272.730 287.780 C 274.348 285.920,273.911 282.741,271.726 280.485 C 271.452 280.202,270.913 279.437,270.528 278.785 C 270.143 278.133,269.686 277.600,269.514 277.600 C 269.341 277.600,269.200 277.406,269.200 277.169 C 269.200 276.931,268.480 276.046,267.600 275.200 C 266.720 274.354,266.000 273.462,266.000 273.217 C 266.000 272.973,264.200 270.985,262.000 268.800 C 259.800 266.615,258.000 264.642,258.000 264.414 C 258.000 264.186,257.547 264.000,256.992 264.000 C 256.318 264.000,254.896 263.058,252.692 261.151 C 247.164 256.367,242.850 253.280,236.000 249.206 C 233.690 247.833,231.723 246.637,231.629 246.550 C 231.535 246.463,231.960 245.868,232.573 245.228 C 233.592 244.165,233.694 243.200,232.788 243.200 C 232.588 243.200,231.383 242.731,230.112 242.157 C 228.840 241.583,227.260 240.884,226.600 240.604 C 225.940 240.324,224.680 239.782,223.800 239.400 C 222.920 239.018,221.570 238.435,220.800 238.105 C 220.030 237.775,218.770 237.235,218.000 236.905 C 212.430 234.518,212.921 234.534,211.957 236.711 C 211.497 237.750,210.958 239.005,210.760 239.500 C 209.820 241.849,209.480 242.653,209.153 243.295 C 208.959 243.677,208.800 244.352,208.800 244.795 C 208.800 245.238,208.620 245.600,208.400 245.600 C 208.180 245.600,208.000 245.962,208.000 246.405 C 208.000 246.848,207.841 247.523,207.647 247.905 C 207.321 248.546,207.007 249.287,206.039 251.700 C 205.840 252.195,205.283 253.680,204.800 255.000 C 203.908 257.439,203.501 258.488,202.820 260.100 C 202.611 260.595,202.149 261.900,201.792 263.000 C 201.219 264.768,198.502 272.041,197.609 274.200 C 197.427 274.640,196.883 276.080,196.400 277.400 C 194.980 281.281,194.204 283.216,193.553 284.495 C 193.359 284.877,193.200 285.464,193.200 285.800 C 193.200 286.136,193.041 286.723,192.847 287.105 C 192.483 287.821,191.789 289.446,191.100 291.200 C 190.884 291.750,190.548 292.513,190.353 292.895 C 190.159 293.277,190.000 293.864,190.000 294.200 C 190.000 294.536,189.841 295.123,189.647 295.505 C 189.009 296.759,188.219 298.723,186.873 302.400 C 186.430 303.610,185.227 306.850,184.200 309.600 C 183.173 312.350,181.970 315.590,181.527 316.800 C 181.084 318.010,180.560 319.405,180.361 319.900 C 180.162 320.395,179.844 321.205,179.654 321.700 C 179.076 323.201,178.327 324.960,177.953 325.695 C 177.759 326.077,177.600 326.664,177.600 327.000 C 177.600 327.336,177.441 327.923,177.247 328.305 C 177.052 328.687,176.716 329.450,176.500 330.000 C 176.284 330.550,175.921 331.450,175.694 332.000 C 175.467 332.550,175.064 333.630,174.800 334.400 C 174.320 335.798,174.001 336.626,173.146 338.700 C 172.500 340.267,172.138 341.229,171.678 342.600 C 171.456 343.260,171.139 344.160,170.972 344.600 C 170.805 345.040,170.372 346.210,170.008 347.200 C 169.268 349.216,168.215 349.752,167.800 348.323 C 167.455 347.133,163.291 335.712,162.725 334.400 C 162.167 333.108,161.793 332.128,161.200 330.400 C 160.936 329.630,160.557 328.595,160.360 328.100 C 159.435 325.785,159.080 324.949,158.753 324.305 C 158.559 323.923,158.400 323.248,158.400 322.805 C 158.400 322.362,158.220 322.000,158.000 322.000 C 157.780 322.000,157.600 321.638,157.600 321.195 C 157.600 320.752,157.441 320.077,157.247 319.695 C 156.921 319.054,156.607 318.313,155.639 315.900 C 155.440 315.405,154.883 313.920,154.400 312.600 C 153.917 311.280,153.377 309.840,153.199 309.400 C 153.022 308.960,152.337 307.160,151.679 305.400 C 151.020 303.640,149.639 299.950,148.609 297.200 C 147.580 294.450,146.553 291.660,146.328 291.000 C 146.103 290.340,145.733 289.350,145.506 288.800 C 145.049 287.693,144.497 286.320,143.900 284.800 C 143.684 284.250,143.348 283.487,143.153 283.105 C 142.959 282.723,142.800 282.136,142.800 281.800 C 142.800 281.464,142.641 280.877,142.447 280.495 C 142.252 280.113,141.916 279.350,141.700 278.800 C 141.484 278.250,141.121 277.350,140.894 276.800 C 140.667 276.250,140.264 275.170,140.000 274.400 C 139.736 273.630,139.357 272.595,139.160 272.100 C 138.962 271.605,138.644 270.795,138.454 270.300 C 138.263 269.805,137.921 268.950,137.693 268.400 C 137.465 267.850,136.883 266.320,136.400 265.000 C 135.917 263.680,135.373 262.240,135.191 261.800 C 135.009 261.360,134.201 259.200,133.395 257.000 C 132.588 254.800,131.782 252.640,131.603 252.200 C 131.424 251.760,130.883 250.320,130.400 249.000 C 129.917 247.680,129.378 246.240,129.201 245.800 C 129.025 245.360,128.664 244.370,128.400 243.600 C 127.620 241.328,127.359 240.692,126.457 238.862 C 125.986 237.906,125.600 236.906,125.600 236.639 C 125.600 235.820,124.635 234.881,124.000 235.082 M314.853 260.400 C 314.604 262.820,314.216 266.825,313.991 269.300 C 313.766 271.775,313.410 275.600,313.200 277.800 C 312.990 280.000,312.717 282.970,312.594 284.400 C 312.212 288.818,311.619 295.392,311.179 300.100 C 309.316 319.985,309.313 320.081,310.451 322.327 C 310.973 323.357,311.535 324.260,311.700 324.333 C 311.865 324.407,312.000 324.812,312.000 325.233 C 312.000 325.655,312.180 326.000,312.400 326.000 C 312.620 326.000,312.800 326.236,312.800 326.525 C 312.800 326.813,313.115 327.405,313.500 327.840 C 313.885 328.275,314.259 328.894,314.330 329.216 C 314.402 329.537,314.627 329.860,314.830 329.933 C 315.034 330.007,315.200 330.412,315.200 330.833 C 315.200 331.255,315.380 331.600,315.600 331.600 C 315.820 331.600,316.000 331.960,316.000 332.400 C 316.000 332.840,316.180 333.200,316.400 333.200 C 316.620 333.200,316.800 333.560,316.800 334.000 C 316.800 334.440,316.980 334.800,317.200 334.800 C 317.420 334.800,317.600 335.036,317.600 335.325 C 317.600 335.613,317.960 336.236,318.400 336.708 C 318.840 337.180,319.200 337.844,319.200 338.183 C 319.200 338.522,319.380 338.800,319.600 338.800 C 319.820 338.800,320.000 339.160,320.000 339.600 C 320.000 340.040,320.180 340.400,320.400 340.400 C 320.620 340.400,320.800 340.670,320.800 341.000 C 320.800 341.330,320.980 341.600,321.200 341.600 C 321.420 341.600,321.600 341.960,321.600 342.400 C 321.600 342.840,321.780 343.200,322.000 343.200 C 322.220 343.200,322.400 343.560,322.400 344.000 C 322.400 344.440,322.536 344.800,322.702 344.800 C 322.869 344.800,323.244 345.340,323.536 346.000 C 324.656 348.532,326.000 347.659,326.000 344.400 C 326.000 342.800,326.171 341.600,326.400 341.600 C 326.631 341.600,326.800 340.333,326.800 338.600 C 326.800 336.867,326.969 335.600,327.200 335.600 C 327.429 335.600,327.600 334.400,327.600 332.800 C 327.600 331.200,327.771 330.000,328.000 330.000 C 328.231 330.000,328.400 328.741,328.400 327.024 C 328.400 325.387,328.580 323.936,328.800 323.800 C 329.020 323.664,329.200 322.404,329.200 321.000 C 329.200 319.596,329.380 318.336,329.600 318.200 C 329.820 318.064,330.000 316.624,330.000 315.000 C 330.000 313.376,330.180 311.936,330.400 311.800 C 330.620 311.664,330.800 310.393,330.800 308.976 C 330.800 307.525,330.975 306.400,331.200 306.400 C 331.443 306.400,331.600 304.600,331.600 301.800 C 331.600 299.000,331.443 297.200,331.200 297.200 C 330.980 297.200,330.800 296.750,330.800 296.200 C 330.800 295.650,330.620 295.200,330.400 295.200 C 330.180 295.200,330.000 294.750,330.000 294.200 C 330.000 293.650,329.820 293.200,329.600 293.200 C 329.380 293.200,329.200 292.750,329.200 292.200 C 329.200 291.650,329.020 291.200,328.800 291.200 C 328.580 291.200,328.400 290.660,328.400 290.000 C 328.400 289.340,328.220 288.800,328.000 288.800 C 327.780 288.800,327.600 288.440,327.600 288.000 C 327.600 287.560,327.420 287.200,327.200 287.200 C 326.980 287.200,326.800 286.660,326.800 286.000 C 326.800 285.340,326.620 284.800,326.400 284.800 C 326.180 284.800,326.000 284.275,326.000 283.633 C 326.000 282.992,325.865 282.407,325.700 282.333 C 325.535 282.260,324.860 280.536,324.200 278.502 C 323.540 276.468,322.865 274.803,322.700 274.802 C 322.535 274.801,322.400 274.260,322.400 273.600 C 322.400 272.940,322.259 272.400,322.087 272.400 C 321.915 272.400,321.526 271.545,321.222 270.500 C 320.918 269.455,320.519 268.500,320.336 268.378 C 320.154 268.255,319.964 267.670,319.915 267.078 C 319.866 266.485,319.685 266.000,319.513 266.000 C 319.341 266.000,319.200 265.561,319.200 265.024 C 319.200 264.487,319.020 263.936,318.800 263.800 C 318.580 263.664,318.400 263.203,318.400 262.776 C 318.400 262.349,318.220 262.000,318.000 262.000 C 317.780 262.000,317.600 261.561,317.600 261.024 C 317.600 260.487,317.420 259.936,317.200 259.800 C 316.980 259.664,316.800 259.113,316.800 258.576 C 316.800 258.039,316.620 257.600,316.400 257.600 C 316.180 257.600,316.000 257.240,316.000 256.800 C 316.000 254.268,315.239 256.657,314.853 260.400 " stroke="none" fill="#373737" fill-rule="evenodd"></path><path id="path3" d="M190.176 67.422 C 189.420 68.028,189.422 68.034,190.239 67.641 C 190.833 67.355,191.236 67.378,191.619 67.719 C 192.074 68.122,192.076 68.087,191.632 67.500 C 190.994 66.657,191.122 66.664,190.176 67.422 M187.600 68.800 C 186.830 69.222,186.344 69.574,186.520 69.583 C 186.944 69.605,189.200 68.432,189.200 68.190 C 189.200 67.928,189.177 67.937,187.600 68.800 M192.000 68.521 C 192.000 70.183,199.387 80.103,203.964 84.587 C 207.465 88.019,206.966 87.177,203.197 83.295 C 199.692 79.686,195.991 74.889,193.754 71.058 C 192.229 68.448,192.000 68.116,192.000 68.521 M178.400 71.600 L 177.000 71.895 178.400 71.919 C 179.170 71.933,180.160 71.789,180.600 71.600 L 181.400 71.256 180.600 71.281 C 180.160 71.294,179.170 71.438,178.400 71.600 M172.400 72.400 L 170.600 72.680 172.400 72.700 C 173.390 72.711,174.650 72.576,175.200 72.400 L 176.200 72.080 175.200 72.100 C 174.650 72.111,173.390 72.246,172.400 72.400 M165.600 73.200 L 163.800 73.480 165.800 73.500 C 166.900 73.511,168.250 73.376,168.800 73.200 C 170.125 72.776,168.330 72.776,165.600 73.200 M159.200 74.000 L 157.000 74.270 159.200 74.295 C 160.410 74.309,161.850 74.176,162.400 74.000 L 163.400 73.680 162.400 73.705 C 161.850 73.719,160.410 73.852,159.200 74.000 M152.400 74.800 L 150.200 75.070 152.400 75.087 C 153.610 75.097,155.140 74.968,155.800 74.800 L 157.000 74.495 155.800 74.513 C 155.140 74.522,153.610 74.652,152.400 74.800 M146.000 75.600 L 143.800 75.870 146.000 75.895 C 147.210 75.909,148.650 75.776,149.200 75.600 L 150.200 75.280 149.200 75.305 C 148.650 75.319,147.210 75.452,146.000 75.600 M141.200 76.264 C 137.193 76.885,127.600 80.250,127.600 81.035 C 127.600 81.152,127.735 81.176,127.900 81.090 C 130.553 79.699,135.572 77.894,138.600 77.244 C 142.731 76.356,143.777 76.083,143.000 76.096 C 142.560 76.103,141.750 76.179,141.200 76.264 M124.876 82.283 C 123.928 82.835,123.235 83.368,123.336 83.469 C 123.436 83.570,124.392 83.104,125.459 82.434 C 127.782 80.975,127.326 80.857,124.876 82.283 M119.800 85.746 C 115.118 89.310,108.863 96.441,106.595 100.800 C 105.922 102.093,107.159 100.497,109.185 97.460 C 111.815 93.515,116.050 89.035,119.860 86.168 C 122.380 84.271,123.154 83.574,122.700 83.607 C 122.645 83.612,121.340 84.574,119.800 85.746 M206.800 87.029 C 206.800 87.311,207.217 87.679,209.300 89.233 C 211.063 90.549,210.568 89.834,208.600 88.221 C 207.610 87.410,206.800 86.874,206.800 87.029 M210.805 90.266 C 210.815 90.874,219.554 96.194,222.188 97.195 C 224.044 97.901,223.230 97.256,220.700 96.016 C 217.319 94.359,214.970 92.980,212.700 91.321 C 211.655 90.557,210.802 90.082,210.805 90.266 M228.000 99.600 C 228.330 99.813,228.870 99.988,229.200 99.988 C 229.733 99.988,229.733 99.945,229.200 99.600 C 228.870 99.387,228.330 99.212,228.000 99.212 C 227.467 99.212,227.467 99.255,228.000 99.600 M230.400 100.400 C 230.730 100.613,231.270 100.788,231.600 100.788 C 232.133 100.788,232.133 100.745,231.600 100.400 C 231.270 100.187,230.730 100.012,230.400 100.012 C 229.867 100.012,229.867 100.055,230.400 100.400 M233.479 101.400 C 233.951 101.731,234.468 102.586,234.628 103.300 C 234.789 104.015,234.992 104.392,235.081 104.137 C 235.377 103.286,234.074 100.800,233.331 100.800 C 232.718 100.800,232.738 100.881,233.479 101.400 M105.440 102.840 C 105.045 103.508,104.811 104.144,104.919 104.253 C 105.028 104.361,105.406 103.869,105.760 103.160 C 106.593 101.490,106.370 101.266,105.440 102.840 M103.855 106.255 C 103.476 107.049,103.253 107.786,103.359 107.893 C 103.466 107.999,103.836 107.409,104.182 106.582 C 104.998 104.629,104.749 104.380,103.855 106.255 M235.246 105.600 C 235.265 105.930,235.424 106.650,235.600 107.200 L 235.920 108.200 235.954 107.200 C 235.973 106.650,235.813 105.930,235.600 105.600 C 235.255 105.067,235.216 105.067,235.246 105.600 M124.800 106.604 C 120.917 107.487,115.480 109.624,114.954 110.474 C 114.825 110.683,115.592 110.413,116.660 109.874 C 122.423 106.963,131.554 105.524,136.400 106.762 C 138.581 107.320,140.565 107.632,140.311 107.377 C 139.102 106.168,128.945 105.662,124.800 106.604 M201.276 106.340 C 200.768 106.483,202.984 106.600,206.200 106.600 C 209.416 106.600,211.632 106.483,211.124 106.340 C 210.616 106.197,208.400 106.080,206.200 106.080 C 204.000 106.080,201.784 106.197,201.276 106.340 M197.600 107.206 C 197.178 107.482,197.415 107.523,198.400 107.342 C 200.125 107.025,200.451 106.798,199.167 106.806 C 198.635 106.809,197.930 106.989,197.600 107.206 M214.800 107.572 C 216.230 107.971,217.940 108.511,218.600 108.773 C 219.260 109.036,219.620 109.080,219.400 108.872 C 218.778 108.283,214.260 106.797,213.173 106.824 C 212.638 106.837,213.370 107.174,214.800 107.572 M143.200 108.685 C 145.990 109.808,151.075 112.893,151.882 113.953 C 152.198 114.368,152.379 114.422,152.387 114.104 C 152.418 112.902,143.067 107.539,141.081 107.619 C 140.817 107.630,141.770 108.110,143.200 108.685 M192.493 108.980 C 191.247 109.668,190.856 110.106,191.812 109.743 C 193.303 109.175,194.599 108.405,194.000 108.442 C 193.670 108.462,192.992 108.704,192.493 108.980 M236.269 110.600 C 236.396 111.920,236.568 113.075,236.650 113.167 C 236.941 113.490,236.716 110.186,236.379 109.200 C 236.158 108.552,236.120 109.045,236.269 110.600 M188.229 111.408 C 187.144 112.158,185.974 113.068,185.629 113.430 C 185.136 113.946,190.096 110.786,190.767 110.156 C 191.479 109.488,189.825 110.304,188.229 111.408 M222.211 110.539 C 224.119 111.841,225.200 112.478,225.200 112.299 C 225.200 112.045,222.104 110.000,221.720 110.000 C 221.556 110.000,221.777 110.242,222.211 110.539 M101.829 111.829 C 101.681 112.415,101.638 112.972,101.732 113.066 C 101.827 113.160,102.024 112.758,102.171 112.171 C 102.319 111.585,102.362 111.028,102.268 110.934 C 102.173 110.840,101.976 111.242,101.829 111.829 M113.029 111.409 C 112.605 111.729,112.338 112.071,112.435 112.169 C 112.532 112.266,113.059 112.002,113.606 111.582 C 114.153 111.161,114.420 110.820,114.200 110.822 C 113.980 110.824,113.453 111.088,113.029 111.409 M110.880 113.211 C 109.943 114.084,109.394 115.646,109.729 116.483 C 109.843 116.767,109.951 116.519,109.968 115.931 C 109.986 115.343,110.466 114.308,111.036 113.631 C 112.223 112.220,112.152 112.027,110.880 113.211 M126.000 112.840 C 122.800 113.681,121.378 114.161,121.000 114.528 C 120.739 114.782,120.878 114.818,121.400 114.632 C 125.543 113.150,128.342 112.711,132.586 112.878 C 135.014 112.974,136.550 112.924,136.000 112.766 C 134.564 112.355,127.653 112.406,126.000 112.840 M201.515 112.728 C 201.138 112.878,203.246 113.000,206.200 113.000 C 209.154 113.000,211.262 112.878,210.885 112.728 C 210.508 112.579,208.400 112.456,206.200 112.456 C 204.000 112.456,201.892 112.579,201.515 112.728 M226.260 113.200 C 226.721 113.750,227.302 114.740,227.551 115.400 L 228.005 116.600 227.778 115.400 C 227.653 114.740,227.072 113.750,226.487 113.200 L 225.423 112.200 226.260 113.200 M137.233 113.344 C 137.325 113.423,137.940 113.608,138.600 113.756 C 139.476 113.952,139.638 113.915,139.200 113.618 C 138.660 113.253,136.832 112.998,137.233 113.344 M198.400 113.618 C 197.962 113.915,198.124 113.952,199.000 113.756 C 200.471 113.427,200.790 113.198,199.767 113.206 C 199.345 113.209,198.730 113.395,198.400 113.618 M214.000 113.954 C 216.591 114.792,219.138 116.056,221.514 117.683 C 222.456 118.329,223.398 118.800,223.607 118.729 C 224.676 118.366,214.338 113.177,212.632 113.222 C 212.174 113.233,212.790 113.563,214.000 113.954 M237.095 119.200 C 237.302 126.322,237.149 125.876,239.472 126.131 C 242.108 126.421,244.046 126.791,245.000 127.186 C 248.229 128.526,249.314 129.230,251.700 131.529 C 253.185 132.960,254.400 134.372,254.400 134.666 C 254.400 134.960,254.536 135.200,254.702 135.200 C 254.869 135.200,255.244 135.785,255.536 136.500 C 255.828 137.215,256.220 138.160,256.406 138.600 C 257.582 141.373,257.591 147.301,256.423 150.200 C 254.101 155.969,250.152 159.983,245.000 161.809 C 244.552 161.968,244.406 162.171,244.667 162.269 C 246.704 163.036,253.891 156.926,255.905 152.715 C 261.815 140.361,252.601 125.600,238.980 125.600 L 237.600 125.600 237.577 121.100 C 237.564 118.625,237.413 115.880,237.240 115.000 C 237.056 114.062,236.996 115.801,237.095 119.200 M101.000 115.200 C 100.848 115.891,100.814 116.547,100.924 116.657 C 101.034 116.767,101.248 116.291,101.400 115.600 C 101.552 114.909,101.586 114.253,101.476 114.143 C 101.366 114.033,101.152 114.509,101.000 115.200 M194.700 115.026 C 193.655 115.570,192.800 116.105,192.800 116.214 C 192.800 116.324,193.655 115.986,194.700 115.463 C 195.745 114.940,196.870 114.411,197.200 114.288 C 197.733 114.088,197.733 114.062,197.200 114.050 C 196.870 114.043,195.745 114.482,194.700 115.026 M184.797 115.000 C 184.488 117.002,185.423 118.806,186.762 118.794 C 187.160 118.790,187.023 118.598,186.400 118.285 C 185.631 117.897,185.345 117.367,185.160 115.991 C 185.028 115.006,184.865 114.560,184.797 115.000 M142.033 114.949 C 142.445 115.317,144.800 116.400,144.800 116.221 C 144.800 115.990,142.582 114.800,142.153 114.800 C 141.996 114.800,141.942 114.867,142.033 114.949 M152.493 116.000 C 152.493 116.770,152.575 117.085,152.676 116.700 C 152.776 116.315,152.776 115.685,152.676 115.300 C 152.575 114.915,152.493 115.230,152.493 116.000 M116.800 116.657 C 116.030 117.217,114.860 117.921,114.200 118.222 C 113.540 118.523,113.276 118.776,113.613 118.784 C 114.131 118.798,117.952 116.582,118.697 115.836 C 119.337 115.197,118.032 115.761,116.800 116.657 M227.082 117.330 C 226.937 117.709,226.409 118.183,225.909 118.384 C 225.409 118.585,225.270 118.755,225.600 118.762 C 226.472 118.780,227.711 117.734,227.515 117.146 C 227.402 116.805,227.261 116.865,227.082 117.330 M110.000 117.557 C 110.000 118.112,111.522 118.902,112.122 118.658 C 112.392 118.548,112.308 118.449,111.929 118.432 C 111.559 118.414,110.974 118.117,110.629 117.771 C 110.283 117.426,110.000 117.329,110.000 117.557 M151.200 118.200 C 150.512 118.593,150.403 118.776,150.851 118.786 C 151.209 118.794,151.726 118.530,152.000 118.200 C 152.609 117.466,152.484 117.466,151.200 118.200 M100.269 119.556 C 100.121 120.295,100.024 121.913,100.053 123.150 C 100.104 125.290,100.123 125.244,100.448 122.200 C 100.812 118.788,100.713 117.333,100.269 119.556 M127.291 125.668 C 126.352 126.124,124.898 127.274,124.062 128.225 C 115.977 137.409,129.707 149.868,138.034 140.904 L 139.400 139.434 137.709 140.908 C 134.420 143.774,131.020 144.347,127.372 142.648 C 118.157 138.357,121.716 124.630,131.875 125.277 C 133.255 125.365,134.162 125.296,133.892 125.125 C 132.916 124.505,129.030 124.825,127.291 125.668 M203.738 125.106 C 203.484 125.268,204.592 125.400,206.200 125.400 C 207.808 125.400,209.040 125.265,208.938 125.100 C 208.700 124.714,204.346 124.719,203.738 125.106 M94.313 126.221 C 80.324 129.612,75.029 146.259,84.511 157.031 C 86.677 159.492,90.800 162.225,90.800 161.200 C 90.800 160.980,90.607 160.800,90.372 160.800 C 88.434 160.800,81.600 153.643,81.600 151.614 C 81.600 151.380,81.436 150.877,81.235 150.495 C 77.746 143.849,82.353 131.997,89.803 128.449 C 93.229 126.818,93.115 126.851,98.200 126.034 L 100.200 125.713 98.400 125.690 C 97.410 125.677,95.571 125.916,94.313 126.221 M200.946 126.367 C 199.602 127.187,197.347 129.880,197.705 130.239 C 197.824 130.358,198.255 129.891,198.661 129.201 C 199.067 128.510,200.196 127.418,201.169 126.773 C 203.119 125.479,202.940 125.152,200.946 126.367 M210.200 125.977 C 211.777 126.621,214.049 129.124,214.799 131.045 C 215.219 132.120,215.567 132.730,215.573 132.400 C 215.606 130.348,211.686 125.558,210.028 125.625 C 209.580 125.643,209.629 125.744,210.200 125.977 M137.578 127.737 C 138.337 128.542,139.022 129.200,139.101 129.200 C 139.461 129.200,137.977 127.462,137.137 126.900 C 136.518 126.486,136.668 126.770,137.578 127.737 M197.049 131.415 C 196.912 131.773,196.816 132.456,196.836 132.933 C 196.862 133.547,196.985 133.408,197.259 132.456 C 197.657 131.072,197.494 130.258,197.049 131.415 M140.200 134.400 C 140.200 136.118,140.332 137.316,140.494 137.062 C 140.656 136.808,140.788 135.610,140.788 134.400 C 140.788 133.190,140.656 131.992,140.494 131.738 C 140.332 131.484,140.200 132.682,140.200 134.400 M196.813 135.851 C 196.742 140.464,205.098 145.957,208.704 143.668 C 208.980 143.492,208.164 143.424,206.888 143.516 C 202.739 143.816,198.982 141.243,197.561 137.127 C 197.157 135.957,196.820 135.383,196.813 135.851 M215.045 136.964 C 214.885 137.602,214.193 138.950,213.507 139.961 C 212.608 141.288,212.500 141.590,213.120 141.047 C 214.159 140.138,215.734 137.002,215.502 136.306 C 215.410 136.031,215.205 136.327,215.045 136.964 M210.600 142.453 C 209.940 142.861,209.670 143.191,210.000 143.185 C 210.654 143.174,212.248 142.101,211.971 141.859 C 211.877 141.777,211.260 142.044,210.600 142.453 M91.600 162.000 C 91.930 162.213,92.470 162.388,92.800 162.388 C 93.333 162.388,93.333 162.345,92.800 162.000 C 92.470 161.787,91.930 161.612,91.600 161.612 C 91.067 161.612,91.067 161.655,91.600 162.000 M94.200 162.800 C 94.640 162.989,95.900 163.134,97.000 163.122 L 99.000 163.100 97.200 162.780 C 94.641 162.324,93.117 162.335,94.200 162.800 M240.200 162.800 L 238.600 163.086 240.600 163.115 C 241.700 163.131,242.960 162.989,243.400 162.800 C 244.415 162.364,242.637 162.364,240.200 162.800 M100.844 164.852 C 101.388 167.346,101.643 167.702,101.382 165.600 C 101.260 164.610,101.003 163.643,100.811 163.452 C 100.620 163.260,100.635 163.890,100.844 164.852 M236.219 164.641 C 235.846 166.626,236.148 166.725,236.665 164.787 C 236.898 163.914,236.954 163.200,236.789 163.200 C 236.624 163.200,236.367 163.848,236.219 164.641 M235.649 167.400 C 235.616 167.840,235.496 168.650,235.383 169.200 L 235.177 170.200 235.606 169.219 C 235.842 168.679,235.961 167.869,235.872 167.419 C 235.713 166.621,235.707 166.621,235.649 167.400 M101.656 168.200 C 101.656 168.640,101.811 169.360,102.000 169.800 L 102.344 170.600 102.344 169.800 C 102.344 169.360,102.189 168.640,102.000 168.200 L 101.656 167.400 101.656 168.200 M234.629 171.429 C 234.481 172.015,234.451 172.584,234.561 172.694 C 234.671 172.804,234.881 172.415,235.029 171.829 C 235.176 171.242,235.206 170.673,235.096 170.563 C 234.986 170.453,234.776 170.842,234.629 171.429 M104.012 176.400 C 104.012 176.730,104.187 177.270,104.400 177.600 C 104.745 178.133,104.788 178.133,104.788 177.600 C 104.788 177.270,104.613 176.730,104.400 176.400 C 104.055 175.867,104.012 175.867,104.012 176.400 M229.900 183.700 C 228.889 185.732,228.116 187.449,228.181 187.515 C 228.247 187.581,229.149 185.993,230.186 183.986 C 231.222 181.979,231.996 180.262,231.904 180.171 C 231.813 180.080,230.911 181.668,229.900 183.700 M106.400 182.213 C 106.400 183.319,114.050 195.245,115.628 196.600 C 116.185 197.078,115.988 196.675,115.138 195.600 C 112.871 192.729,109.756 187.923,108.167 184.843 C 106.834 182.258,106.400 181.613,106.400 182.213 M150.069 186.953 C 150.728 197.294,163.591 205.936,173.572 202.743 C 181.450 200.222,187.571 192.957,187.594 186.100 L 187.600 184.400 168.753 184.400 L 149.907 184.400 150.069 186.953 M225.451 191.376 C 219.210 200.564,210.681 208.235,200.800 213.546 C 196.626 215.790,196.161 216.333,200.111 214.351 C 209.702 209.540,219.763 200.573,225.864 191.400 C 227.795 188.497,228.092 188.000,227.896 188.000 C 227.812 188.000,226.712 189.519,225.451 191.376 M117.230 198.673 C 120.934 202.770,126.430 207.564,130.382 210.146 C 133.642 212.276,134.000 212.487,134.000 212.282 C 134.000 212.192,132.695 211.252,131.100 210.195 C 127.062 207.519,123.113 204.224,119.659 200.646 C 116.887 197.776,115.125 196.344,117.230 198.673 M134.400 212.590 C 134.400 212.694,134.985 213.065,135.700 213.414 L 137.000 214.048 136.000 213.233 C 135.037 212.448,134.400 212.192,134.400 212.590 M142.900 216.832 C 143.432 217.142,143.618 217.834,143.676 219.720 L 143.751 222.200 143.897 219.866 C 144.040 217.569,143.613 216.386,142.651 216.412 C 142.403 216.419,142.515 216.608,142.900 216.832 M194.100 216.665 C 193.825 216.776,193.614 217.257,193.632 217.733 C 193.653 218.310,193.735 218.399,193.878 218.000 C 193.996 217.670,194.376 217.175,194.722 216.900 C 195.352 216.400,195.044 216.284,194.100 216.665 M284.916 247.200 C 284.801 247.640,284.543 248.000,284.342 248.000 C 284.140 248.000,284.011 250.077,284.053 252.679 C 284.105 255.931,283.986 257.405,283.664 257.512 C 283.409 257.597,283.200 257.925,283.200 258.240 C 283.200 259.184,282.228 262.000,281.903 262.000 C 281.736 262.000,281.600 262.349,281.600 262.776 C 281.600 263.203,281.420 263.664,281.200 263.800 C 280.980 263.936,280.800 264.487,280.800 265.024 C 280.800 265.561,280.620 266.000,280.400 266.000 C 280.180 266.000,280.000 266.540,280.000 267.200 C 280.000 267.860,279.854 268.400,279.676 268.400 C 279.497 268.400,279.121 269.300,278.839 270.400 C 278.557 271.500,278.163 272.400,277.963 272.400 C 277.763 272.400,277.600 272.940,277.600 273.600 C 277.600 274.260,277.465 274.801,277.300 274.802 C 277.135 274.803,276.461 276.468,275.801 278.502 C 275.142 280.536,274.447 282.313,274.257 282.451 C 274.067 282.589,274.035 283.604,274.187 284.706 C 274.339 285.814,274.291 287.044,274.078 287.455 C 273.866 287.865,273.471 288.740,273.200 289.400 C 272.929 290.060,272.548 290.913,272.353 291.295 C 272.159 291.677,272.000 292.264,272.000 292.600 C 272.000 292.936,271.827 293.523,271.615 293.905 C 271.403 294.287,270.798 295.860,270.269 297.400 L 269.308 300.200 270.051 305.800 C 270.459 308.880,270.994 313.020,271.239 315.000 C 271.485 316.980,271.845 319.770,272.041 321.200 C 272.236 322.630,272.582 325.240,272.808 327.000 C 273.035 328.760,273.396 331.505,273.610 333.100 C 273.825 334.695,274.169 337.305,274.376 338.900 C 274.582 340.495,274.897 342.599,275.076 343.575 L 275.400 345.350 276.395 343.375 C 276.942 342.289,277.482 341.310,277.595 341.200 C 277.709 341.090,278.592 339.470,279.559 337.600 C 281.884 333.101,284.399 328.481,286.244 325.322 C 286.713 324.517,287.270 324.072,287.744 324.122 C 288.250 324.174,288.760 323.702,289.297 322.682 C 290.227 320.918,290.400 320.956,290.475 322.943 C 290.505 323.745,290.680 324.400,290.865 324.400 C 291.049 324.400,291.205 325.885,291.212 327.700 C 291.219 329.515,291.500 333.700,291.837 337.000 C 292.175 340.300,292.484 344.378,292.525 346.062 C 292.567 347.766,292.760 349.024,292.962 348.900 C 293.161 348.777,293.209 348.862,293.068 349.090 C 292.928 349.317,290.515 349.622,287.706 349.767 C 274.280 350.463,265.649 357.465,265.605 367.700 L 265.600 368.800 261.000 368.800 L 256.400 368.800 256.400 378.402 L 256.400 388.004 300.100 387.902 L 343.800 387.800 343.907 378.100 L 344.014 368.400 339.407 368.400 L 334.800 368.400 334.800 365.576 C 334.800 363.796,334.652 362.844,334.400 363.000 C 334.170 363.142,333.996 362.769,333.991 362.124 C 333.986 361.506,333.630 360.550,333.200 360.000 C 332.770 359.450,332.414 358.772,332.409 358.494 C 332.398 357.875,326.769 352.252,325.976 352.068 C 325.663 351.995,325.316 351.815,325.204 351.668 C 324.750 351.072,323.150 350.400,322.182 350.400 C 321.598 350.400,321.260 350.227,321.400 350.000 C 321.561 349.739,319.162 349.600,314.497 349.600 L 307.347 349.600 307.436 346.700 C 307.485 345.105,307.811 340.830,308.161 337.200 C 308.511 333.570,308.797 329.205,308.798 327.500 C 308.799 325.449,308.954 324.400,309.255 324.400 C 309.579 324.400,309.647 323.331,309.488 320.700 C 309.283 317.295,309.475 314.505,311.213 295.600 C 311.445 293.070,311.816 289.020,312.036 286.600 C 312.256 284.180,312.602 280.400,312.805 278.200 C 313.008 276.000,313.366 271.950,313.600 269.200 C 314.299 261.014,314.843 257.048,315.384 256.195 C 315.976 255.260,316.145 247.863,315.565 248.222 C 315.364 248.346,315.178 248.257,315.150 248.024 C 315.123 247.791,315.078 247.375,315.050 247.100 C 314.963 246.233,310.000 246.176,310.000 247.042 C 310.000 247.422,309.882 247.615,309.737 247.470 C 308.925 246.658,308.400 248.291,308.400 251.625 C 308.400 253.606,308.220 255.264,307.989 255.407 C 307.764 255.546,307.605 255.872,307.637 256.130 C 307.883 258.126,307.529 264.509,307.200 264.000 C 306.937 263.593,306.810 264.838,306.806 267.876 C 306.803 270.422,306.627 272.459,306.400 272.600 C 306.174 272.739,306.000 274.679,306.000 277.047 C 306.000 279.366,305.842 281.150,305.648 281.029 C 305.454 280.910,305.265 282.737,305.227 285.090 C 305.190 287.443,304.982 289.581,304.765 289.842 C 304.549 290.102,304.400 290.470,304.433 290.658 C 304.649 291.858,304.340 298.410,304.076 298.247 C 303.897 298.137,303.704 299.964,303.647 302.308 C 303.589 304.652,303.423 306.757,303.277 306.985 C 302.949 307.499,302.912 307.950,302.850 312.224 C 302.822 314.139,302.641 315.549,302.440 315.425 C 302.236 315.299,302.058 317.060,302.030 319.483 C 302.003 321.838,301.844 323.863,301.677 323.982 C 301.328 324.233,301.317 324.364,301.250 329.224 C 301.223 331.217,301.065 332.764,300.900 332.662 C 300.735 332.560,300.548 334.386,300.485 336.720 C 300.421 339.054,300.286 341.047,300.185 341.149 C 299.754 341.579,299.602 340.756,299.560 337.769 C 299.535 336.026,299.336 334.263,299.117 333.852 C 298.893 333.430,298.883 333.204,299.093 333.334 C 299.299 333.461,299.467 333.311,299.467 333.000 C 299.467 332.689,299.317 332.528,299.133 332.641 C 298.864 332.808,298.679 329.472,298.692 324.709 C 298.693 324.329,298.538 324.115,298.347 324.233 C 298.156 324.351,298.000 322.356,298.000 319.800 C 298.000 316.804,297.858 315.241,297.600 315.400 C 297.342 315.559,297.200 314.063,297.200 311.200 C 297.200 308.337,297.058 306.841,296.800 307.000 C 296.447 307.218,296.139 301.002,296.386 298.656 C 296.433 298.212,296.291 298.020,296.033 298.180 C 295.735 298.364,295.600 297.319,295.600 294.824 C 295.600 292.411,295.450 291.200,295.151 291.200 C 294.827 291.200,294.832 291.044,295.168 290.639 C 295.443 290.308,295.476 290.021,295.249 289.939 C 295.037 289.863,294.818 288.000,294.760 285.800 C 294.701 283.526,294.472 281.673,294.228 281.506 C 293.958 281.321,294.021 281.208,294.400 281.200 C 294.847 281.191,294.873 281.107,294.503 280.872 C 294.169 280.660,293.993 279.292,293.966 276.678 C 293.944 274.545,293.762 272.800,293.563 272.800 C 293.363 272.800,293.200 271.036,293.200 268.880 C 293.200 266.364,293.028 264.788,292.720 264.480 C 292.347 264.107,292.369 263.999,292.820 263.994 C 293.230 263.990,293.262 263.900,292.930 263.689 C 292.634 263.501,292.420 261.938,292.355 259.495 C 292.298 257.353,292.105 255.600,291.926 255.600 C 291.747 255.600,291.600 253.912,291.600 251.849 C 291.600 248.298,291.094 246.640,290.263 247.470 C 290.118 247.615,290.000 247.433,290.000 247.067 C 290.000 246.242,286.475 246.108,285.621 246.900 C 285.190 247.300,285.139 247.300,285.365 246.900 C 285.520 246.625,285.530 246.400,285.386 246.400 C 285.243 246.400,285.031 246.760,284.916 247.200 " stroke="none" fill="#f59e47" fill-rule="evenodd"></path><path id="path4" d="M157.200 12.393 C 156.870 12.610,155.666 12.791,154.524 12.794 C 153.382 12.797,152.336 12.980,152.200 13.200 C 152.064 13.420,151.164 13.600,150.200 13.600 C 149.236 13.600,148.336 13.780,148.200 14.000 C 148.064 14.220,147.333 14.400,146.576 14.400 C 145.819 14.400,145.200 14.580,145.200 14.800 C 145.200 15.020,144.660 15.200,144.000 15.200 C 143.340 15.200,142.800 15.380,142.800 15.600 C 142.800 15.820,142.260 16.000,141.600 16.000 C 140.940 16.000,140.400 16.180,140.400 16.400 C 140.400 16.620,139.860 16.800,139.200 16.800 C 138.540 16.800,138.000 16.947,138.000 17.128 C 138.000 17.308,137.100 17.700,136.000 18.000 C 134.900 18.300,134.000 18.692,134.000 18.872 C 134.000 19.053,133.640 19.200,133.200 19.200 C 132.760 19.200,132.400 19.380,132.400 19.600 C 132.400 19.820,132.076 20.000,131.680 20.000 C 130.786 20.000,128.807 20.894,128.803 21.300 C 128.801 21.465,128.440 21.600,128.000 21.600 C 127.560 21.600,127.200 21.758,127.200 21.951 C 127.200 22.145,126.660 22.527,126.000 22.800 C 125.340 23.073,124.800 23.455,124.800 23.649 C 124.800 23.842,124.440 24.000,124.000 24.000 C 123.560 24.000,123.200 24.180,123.200 24.400 C 123.200 24.620,122.922 24.800,122.583 24.800 C 122.244 24.800,121.749 24.981,121.483 25.202 C 121.217 25.423,119.740 26.444,118.200 27.470 C 116.660 28.497,115.310 29.442,115.200 29.571 C 115.090 29.699,114.337 30.299,113.527 30.902 C 112.716 31.506,111.141 32.888,110.027 33.974 C 108.912 35.060,108.000 35.866,108.000 35.765 C 108.000 35.664,107.217 36.351,106.260 37.291 C 105.303 38.231,104.577 39.069,104.647 39.153 C 104.716 39.237,104.329 39.655,103.786 40.082 C 103.244 40.509,102.800 41.007,102.800 41.189 C 102.800 41.371,102.215 42.127,101.500 42.868 C 99.742 44.691,98.378 46.323,97.212 48.000 C 96.677 48.770,96.138 49.490,96.016 49.600 C 95.714 49.871,93.146 54.176,91.960 56.400 C 91.432 57.390,90.865 58.260,90.700 58.333 C 90.535 58.407,90.400 58.812,90.400 59.233 C 90.400 59.655,90.220 60.000,90.000 60.000 C 89.780 60.000,89.600 60.360,89.600 60.800 C 89.600 61.240,89.420 61.600,89.200 61.600 C 88.980 61.600,88.800 61.949,88.800 62.376 C 88.800 62.803,88.620 63.264,88.400 63.400 C 88.180 63.536,88.000 63.997,88.000 64.424 C 88.000 64.851,87.820 65.200,87.600 65.200 C 87.380 65.200,87.200 65.650,87.200 66.200 C 87.200 66.750,87.020 67.200,86.800 67.200 C 86.580 67.200,86.400 67.650,86.400 68.200 C 86.400 68.750,86.220 69.200,86.000 69.200 C 85.780 69.200,85.600 69.740,85.600 70.400 C 85.600 71.060,85.420 71.600,85.200 71.600 C 84.980 71.600,84.800 72.140,84.800 72.800 C 84.800 73.460,84.620 74.000,84.400 74.000 C 84.180 74.000,84.000 74.540,84.000 75.200 C 84.000 75.860,83.820 76.400,83.600 76.400 C 83.380 76.400,83.200 77.019,83.200 77.776 C 83.200 78.533,83.020 79.264,82.800 79.400 C 82.580 79.536,82.400 80.436,82.400 81.400 C 82.400 82.364,82.220 83.264,82.000 83.400 C 81.780 83.536,81.600 84.616,81.600 85.800 C 81.600 86.984,81.420 88.064,81.200 88.200 C 80.942 88.359,80.800 95.358,80.800 107.886 L 80.800 127.325 77.998 130.163 C 73.478 134.739,70.800 137.681,70.800 138.070 C 70.800 138.270,70.440 138.820,70.000 139.292 C 69.560 139.764,69.200 140.387,69.200 140.675 C 69.200 140.964,69.042 141.200,68.849 141.200 C 68.655 141.200,68.273 141.740,68.000 142.400 C 67.727 143.060,67.345 143.600,67.151 143.600 C 66.958 143.600,66.800 143.960,66.800 144.400 C 66.800 144.840,66.620 145.200,66.400 145.200 C 66.180 145.200,66.000 145.650,66.000 146.200 C 66.000 146.750,65.820 147.200,65.600 147.200 C 65.380 147.200,65.200 147.740,65.200 148.400 C 65.200 149.060,65.020 149.600,64.800 149.600 C 64.580 149.600,64.400 150.129,64.400 150.776 C 64.400 151.423,64.220 152.064,64.000 152.200 C 63.758 152.349,63.600 155.196,63.600 159.400 C 63.600 163.604,63.758 166.451,64.000 166.600 C 64.220 166.736,64.400 167.366,64.400 168.000 C 64.400 168.634,64.580 169.264,64.800 169.400 C 65.020 169.536,65.200 170.087,65.200 170.624 C 65.200 171.161,65.380 171.600,65.600 171.600 C 65.820 171.600,66.000 172.050,66.000 172.600 C 66.000 173.150,66.180 173.600,66.400 173.600 C 66.620 173.600,66.800 173.960,66.800 174.400 C 66.800 174.840,66.980 175.200,67.200 175.200 C 67.420 175.200,67.600 175.436,67.600 175.725 C 67.600 176.013,67.960 176.636,68.400 177.108 C 68.840 177.580,69.200 178.204,69.200 178.495 C 69.200 178.786,69.560 179.283,70.000 179.600 C 70.440 179.917,70.800 180.385,70.800 180.640 C 70.800 180.895,71.535 181.861,72.433 182.786 C 73.331 183.711,74.006 184.511,73.933 184.564 C 73.860 184.616,73.170 185.091,72.400 185.620 C 70.783 186.729,67.399 190.202,64.800 193.416 C 63.810 194.641,62.783 195.883,62.518 196.175 C 61.368 197.444,58.400 202.930,58.400 203.787 C 58.400 204.124,58.220 204.400,58.000 204.400 C 57.780 204.400,57.600 204.760,57.600 205.200 C 57.600 205.640,57.420 206.000,57.200 206.000 C 56.980 206.000,56.800 206.540,56.800 207.200 C 56.800 207.860,56.620 208.400,56.400 208.400 C 56.180 208.400,56.000 208.839,56.000 209.376 C 56.000 209.913,55.820 210.464,55.600 210.600 C 55.380 210.736,55.200 211.456,55.200 212.200 C 55.200 212.944,55.020 213.664,54.800 213.800 C 54.257 214.136,54.257 230.000,54.800 230.000 C 55.020 230.000,55.200 230.720,55.200 231.600 C 55.200 232.480,55.380 233.200,55.600 233.200 C 55.820 233.200,56.000 233.562,56.000 234.005 C 56.000 234.448,56.159 235.123,56.353 235.505 C 56.548 235.887,56.887 236.650,57.108 237.200 C 57.946 239.288,60.487 244.608,60.738 244.800 C 61.006 245.005,61.497 245.735,62.711 247.733 C 63.090 248.357,64.165 249.653,65.100 250.615 C 66.035 251.576,66.800 252.469,66.800 252.598 C 66.800 253.000,70.920 256.976,72.400 258.003 C 73.170 258.537,74.461 259.655,75.269 260.487 C 76.076 261.319,76.849 262.000,76.985 262.000 C 77.122 262.000,77.617 262.358,78.087 262.795 C 79.853 264.440,81.458 264.302,83.534 262.328 C 87.877 258.197,94.154 253.639,101.600 249.208 C 103.910 247.833,105.852 246.662,105.916 246.605 C 105.980 246.547,105.563 245.942,104.988 245.258 C 104.020 244.108,103.942 243.200,104.812 243.200 C 105.012 243.200,106.217 242.731,107.488 242.157 C 108.760 241.583,110.340 240.884,111.000 240.604 C 112.504 239.966,114.556 239.086,116.500 238.247 C 117.325 237.891,118.585 237.351,119.300 237.047 C 120.015 236.744,121.230 236.223,122.000 235.890 C 124.429 234.841,124.761 234.802,125.184 235.517 C 125.528 236.095,125.575 236.050,125.495 235.221 C 125.411 234.358,126.477 233.515,134.400 228.173 L 143.400 222.105 143.518 219.692 L 143.636 217.279 139.518 215.306 C 120.020 205.966,106.532 189.129,101.612 167.990 C 101.127 165.906,100.662 163.975,100.578 163.700 C 100.476 163.368,99.568 163.200,97.879 163.200 C 86.358 163.200,77.277 151.357,80.198 140.143 C 82.346 131.896,90.224 125.639,98.500 125.606 L 100.000 125.600 100.000 123.231 C 100.000 121.028,100.162 119.911,101.254 114.600 C 104.129 100.604,114.403 87.551,127.812 80.856 C 135.379 77.078,137.367 76.617,155.600 74.411 C 184.443 70.921,183.517 71.099,189.065 67.990 C 191.423 66.668,191.131 66.495,193.530 70.649 C 198.653 79.519,207.738 88.706,216.318 93.694 C 221.472 96.691,231.313 100.800,233.333 100.800 C 234.377 100.800,234.890 102.173,236.174 108.400 C 237.143 113.096,237.605 117.336,237.603 121.500 L 237.600 125.600 238.980 125.600 C 243.496 125.600,248.756 127.889,252.234 131.366 C 263.718 142.850,256.529 161.856,240.212 163.148 L 237.024 163.400 236.565 165.200 C 236.313 166.190,235.885 167.990,235.613 169.200 C 231.272 188.557,216.739 206.448,198.230 215.223 C 194.332 217.070,194.016 217.307,193.782 218.553 C 193.244 221.425,193.236 221.417,202.784 227.904 C 213.484 235.174,212.556 234.328,211.804 236.129 C 211.466 236.938,211.279 237.600,211.389 237.600 C 211.499 237.600,211.852 236.972,212.173 236.204 C 212.794 234.716,212.856 234.710,215.500 235.843 C 216.215 236.149,217.430 236.670,218.200 237.000 C 218.970 237.330,220.185 237.849,220.900 238.153 C 221.615 238.456,222.920 239.018,223.800 239.400 C 224.680 239.782,225.940 240.324,226.600 240.604 C 227.260 240.884,228.840 241.583,230.112 242.157 C 231.383 242.731,232.588 243.200,232.788 243.200 C 233.694 243.200,233.592 244.165,232.573 245.228 C 231.960 245.868,231.535 246.463,231.629 246.550 C 231.723 246.637,233.690 247.833,236.000 249.206 C 242.850 253.280,247.164 256.367,252.692 261.151 C 256.338 264.306,257.357 264.606,258.964 263.000 C 259.514 262.450,260.130 262.000,260.334 262.000 C 260.537 262.000,261.400 261.324,262.252 260.498 C 263.103 259.672,264.430 258.554,265.200 258.013 C 266.910 256.813,269.669 254.068,271.806 251.441 C 272.683 250.363,273.580 249.283,273.800 249.041 C 274.020 248.798,274.455 248.105,274.768 247.500 C 275.080 246.895,275.485 246.400,275.668 246.400 C 275.850 246.400,276.000 246.080,276.000 245.688 C 276.000 245.297,276.360 244.717,276.800 244.400 C 277.240 244.083,277.600 243.503,277.600 243.112 C 277.600 242.720,277.780 242.400,278.000 242.400 C 278.220 242.400,278.400 242.040,278.400 241.600 C 278.400 241.160,278.535 240.799,278.700 240.797 C 279.059 240.793,280.000 238.856,280.000 238.120 C 280.000 237.834,280.180 237.600,280.400 237.600 C 280.620 237.600,280.800 237.150,280.800 236.600 C 280.800 236.050,280.980 235.600,281.200 235.600 C 281.420 235.600,281.600 235.060,281.600 234.400 C 281.600 233.740,281.780 233.200,282.000 233.200 C 282.220 233.200,282.400 232.491,282.400 231.624 C 282.400 230.757,282.580 229.936,282.800 229.800 C 283.044 229.649,283.200 226.537,283.200 221.800 C 283.200 217.063,283.044 213.951,282.800 213.800 C 282.580 213.664,282.400 212.933,282.400 212.176 C 282.400 211.419,282.220 210.800,282.000 210.800 C 281.780 210.800,281.600 210.260,281.600 209.600 C 281.600 208.940,281.420 208.400,281.200 208.400 C 280.980 208.400,280.800 207.860,280.800 207.200 C 280.800 206.540,280.620 206.000,280.400 206.000 C 280.180 206.000,280.000 205.640,280.000 205.200 C 280.000 204.760,279.820 204.400,279.600 204.400 C 279.380 204.400,279.200 204.040,279.200 203.600 C 279.200 203.160,279.020 202.800,278.800 202.800 C 278.580 202.800,278.400 202.440,278.400 202.000 C 278.400 201.560,278.220 201.200,278.000 201.200 C 277.780 201.200,277.600 200.880,277.600 200.488 C 277.600 200.097,277.240 199.517,276.800 199.200 C 276.360 198.883,276.000 198.343,276.000 198.000 C 276.000 197.657,275.640 197.117,275.200 196.800 C 274.760 196.483,274.400 195.993,274.400 195.712 C 274.400 195.430,274.220 195.200,274.000 195.200 C 273.780 195.200,273.600 195.008,273.600 194.774 C 273.600 193.864,265.976 185.600,265.137 185.600 C 263.588 185.600,263.609 184.392,265.186 182.766 C 266.074 181.852,266.800 180.895,266.800 180.640 C 266.800 180.385,267.160 179.917,267.600 179.600 C 268.040 179.283,268.400 178.703,268.400 178.312 C 268.400 177.920,268.537 177.600,268.704 177.600 C 269.390 177.600,272.406 170.813,273.415 167.000 C 274.040 164.637,274.144 154.215,273.561 152.292 C 273.346 151.581,272.985 150.370,272.758 149.600 C 271.948 146.841,269.249 141.200,268.740 141.200 C 268.553 141.200,268.400 140.880,268.400 140.488 C 268.400 140.097,268.040 139.517,267.600 139.200 C 267.160 138.883,266.800 138.414,266.800 138.158 C 266.800 137.902,264.550 135.404,261.800 132.608 L 256.800 127.524 256.767 109.062 C 256.748 98.908,256.666 90.240,256.583 89.800 C 256.405 88.849,255.663 84.059,255.344 81.800 C 255.220 80.920,254.956 80.029,254.759 79.820 C 254.562 79.611,254.400 78.857,254.400 78.144 C 254.400 77.431,254.220 76.736,254.000 76.600 C 253.780 76.464,253.600 75.823,253.600 75.176 C 253.600 74.529,253.420 74.000,253.200 74.000 C 252.980 74.000,252.800 73.460,252.800 72.800 C 252.800 72.140,252.620 71.600,252.400 71.600 C 252.180 71.600,252.000 71.060,252.000 70.400 C 252.000 69.740,251.820 69.200,251.600 69.200 C 251.380 69.200,251.200 68.761,251.200 68.224 C 251.200 67.687,251.020 67.136,250.800 67.000 C 250.580 66.864,250.400 66.403,250.400 65.976 C 250.400 65.549,250.220 65.200,250.000 65.200 C 249.780 65.200,249.600 64.851,249.600 64.424 C 249.600 63.997,249.420 63.536,249.200 63.400 C 248.980 63.264,248.800 62.803,248.800 62.376 C 248.800 61.949,248.620 61.600,248.400 61.600 C 248.180 61.600,248.000 61.240,248.000 60.800 C 248.000 60.360,247.820 60.000,247.600 60.000 C 247.380 60.000,247.200 59.640,247.200 59.200 C 247.200 58.760,247.042 58.400,246.849 58.400 C 246.655 58.400,246.273 57.860,246.000 57.200 C 245.727 56.540,245.345 56.000,245.151 56.000 C 244.958 56.000,244.800 55.640,244.800 55.200 C 244.800 54.760,244.620 54.400,244.400 54.400 C 244.180 54.400,244.000 54.164,244.000 53.875 C 244.000 53.587,243.640 52.964,243.200 52.492 C 242.760 52.020,242.400 51.371,242.400 51.050 C 242.400 50.729,242.262 50.407,242.093 50.333 C 241.923 50.260,240.904 48.940,239.828 47.400 C 238.752 45.860,237.000 43.744,235.935 42.699 C 234.871 41.653,233.998 40.663,233.996 40.499 C 233.989 40.028,230.532 36.400,230.089 36.400 C 229.871 36.400,229.387 35.934,229.014 35.365 C 228.641 34.796,228.240 34.427,228.122 34.545 C 228.004 34.662,227.074 33.911,226.054 32.875 C 223.885 30.671,218.971 26.952,216.400 25.569 C 215.410 25.036,214.540 24.465,214.467 24.300 C 214.393 24.135,213.988 24.000,213.567 24.000 C 213.145 24.000,212.800 23.820,212.800 23.600 C 212.800 23.380,212.530 23.200,212.200 23.200 C 211.870 23.200,211.600 23.020,211.600 22.800 C 211.600 22.580,211.330 22.400,211.000 22.400 C 210.670 22.400,210.400 22.220,210.400 22.000 C 210.400 21.780,210.040 21.600,209.600 21.600 C 209.160 21.600,208.800 21.420,208.800 21.200 C 208.800 20.980,208.440 20.800,208.000 20.800 C 207.560 20.800,207.200 20.620,207.200 20.400 C 207.200 20.180,206.851 20.000,206.424 20.000 C 205.997 20.000,205.536 19.820,205.400 19.600 C 205.264 19.380,204.803 19.200,204.376 19.200 C 203.949 19.200,203.600 19.020,203.600 18.800 C 203.600 18.580,203.251 18.400,202.824 18.400 C 202.397 18.400,201.936 18.220,201.800 18.000 C 201.664 17.780,201.124 17.600,200.600 17.600 C 200.076 17.600,199.536 17.420,199.400 17.200 C 199.264 16.980,198.713 16.800,198.176 16.800 C 197.639 16.800,197.200 16.620,197.200 16.400 C 197.200 16.180,196.660 16.000,196.000 16.000 C 195.340 16.000,194.800 15.820,194.800 15.600 C 194.800 15.380,194.271 15.200,193.624 15.200 C 192.977 15.200,192.336 15.020,192.200 14.800 C 192.064 14.580,191.344 14.400,190.600 14.400 C 189.856 14.400,189.136 14.220,189.000 14.000 C 188.864 13.780,188.079 13.600,187.256 13.600 C 186.433 13.600,185.589 13.436,185.380 13.235 C 184.451 12.343,158.457 11.567,157.200 12.393 M125.000 106.995 C 114.248 109.235,106.077 116.224,111.708 118.365 C 112.988 118.852,114.085 118.515,116.530 116.883 C 125.475 110.915,137.239 110.910,145.902 116.870 C 149.626 119.432,152.413 119.097,152.387 116.090 C 152.338 110.282,135.717 104.763,125.000 106.995 M201.800 106.568 C 201.580 106.651,200.050 107.027,198.400 107.402 C 188.388 109.681,180.888 117.152,187.202 118.558 C 188.227 118.786,188.650 118.601,193.335 115.879 C 194.774 115.042,196.548 114.176,197.276 113.954 C 206.417 111.169,212.768 111.954,221.059 116.894 C 226.122 119.910,230.405 116.978,226.279 113.321 C 221.121 108.749,206.602 104.744,201.800 106.568 M127.289 126.070 C 120.265 129.475,120.315 139.362,127.372 142.648 C 133.541 145.520,140.382 141.183,140.382 134.400 C 140.382 127.644,133.315 123.147,127.289 126.070 M202.600 125.982 C 196.737 128.784,195.211 135.711,199.428 140.378 C 204.375 145.854,212.704 143.979,215.137 136.840 C 217.520 129.848,209.339 122.762,202.600 125.982 M314.493 260.800 C 314.493 261.570,314.575 261.885,314.676 261.500 C 314.776 261.115,314.776 260.485,314.676 260.100 C 314.575 259.715,314.493 260.030,314.493 260.800 M314.128 265.200 C 314.128 266.630,314.201 267.215,314.289 266.500 C 314.378 265.785,314.378 264.615,314.289 263.900 C 314.201 263.185,314.128 263.770,314.128 265.200 M313.693 269.600 C 313.693 270.370,313.775 270.685,313.876 270.300 C 313.976 269.915,313.976 269.285,313.876 268.900 C 313.775 268.515,313.693 268.830,313.693 269.600 M313.328 274.000 C 313.328 275.430,313.401 276.015,313.489 275.300 C 313.578 274.585,313.578 273.415,313.489 272.700 C 313.401 271.985,313.328 272.570,313.328 274.000 M312.474 282.244 C 312.433 283.368,312.315 285.168,312.211 286.244 L 312.022 288.200 312.430 286.242 C 312.654 285.166,312.773 283.366,312.693 282.242 L 312.548 280.200 312.474 282.244 M273.634 285.800 C 273.348 286.460,272.953 287.313,272.757 287.695 C 272.561 288.077,272.400 288.664,272.400 289.000 C 272.400 289.336,272.241 289.923,272.047 290.305 C 271.396 291.585,270.412 294.036,269.600 296.400 C 269.336 297.170,268.934 298.192,268.708 298.671 C 268.300 299.534,268.379 300.904,269.184 306.900 C 269.413 308.605,269.780 311.350,270.000 313.000 C 270.220 314.650,270.594 317.395,270.830 319.100 C 271.067 320.805,271.415 323.370,271.604 324.800 C 272.231 329.552,272.849 334.167,273.236 337.000 C 273.446 338.540,273.763 341.060,273.940 342.600 C 274.525 347.692,275.069 347.889,277.178 343.774 C 277.960 342.248,278.690 340.910,278.800 340.800 C 278.910 340.690,279.428 339.790,279.952 338.800 C 284.685 329.852,287.148 325.522,287.717 325.145 C 287.929 325.004,287.979 324.689,287.828 324.445 C 287.262 323.530,287.116 323.700,284.604 328.200 C 282.873 331.300,281.298 334.236,279.559 337.600 C 278.592 339.470,277.709 341.090,277.595 341.200 C 277.482 341.310,276.942 342.289,276.395 343.375 L 275.400 345.350 275.076 343.575 C 274.897 342.599,274.582 340.495,274.376 338.900 C 274.169 337.305,273.825 334.695,273.610 333.100 C 273.396 331.505,273.035 328.760,272.808 327.000 C 272.582 325.240,272.236 322.630,272.041 321.200 C 271.845 319.770,271.485 316.980,271.239 315.000 C 270.994 313.020,270.459 308.880,270.051 305.800 L 269.308 300.200 270.269 297.400 C 270.798 295.860,271.403 294.287,271.615 293.905 C 271.827 293.523,272.000 292.936,272.000 292.600 C 272.000 292.264,272.159 291.677,272.353 291.295 C 272.548 290.913,272.884 290.150,273.100 289.600 C 273.316 289.050,273.713 288.132,273.982 287.560 C 274.251 286.988,274.400 286.088,274.312 285.560 C 274.157 284.621,274.142 284.626,273.634 285.800 M311.672 291.244 C 311.632 292.258,311.515 293.968,311.411 295.044 L 311.222 297.000 311.630 295.039 C 311.855 293.961,311.973 292.251,311.892 291.239 L 311.744 289.400 311.672 291.244 M310.870 300.200 C 310.826 301.300,310.706 302.920,310.602 303.800 L 310.412 305.400 310.822 303.800 C 311.048 302.920,311.168 301.300,311.090 300.200 L 310.948 298.200 310.870 300.200 M310.072 308.844 C 310.032 309.638,309.913 311.168,309.806 312.244 L 309.612 314.200 310.022 312.600 C 310.248 311.720,310.368 310.190,310.288 309.200 C 310.161 307.613,310.136 307.571,310.072 308.844 M167.625 347.467 C 167.550 348.857,168.788 349.791,169.397 348.805 C 169.537 348.578,169.377 348.511,169.023 348.646 C 168.616 348.803,168.276 348.562,168.028 347.942 C 167.820 347.424,167.639 347.210,167.625 347.467 M278.700 350.435 C 271.197 352.974,265.200 360.362,265.200 367.066 L 265.200 368.400 260.600 368.400 L 256.000 368.400 256.093 378.300 L 256.185 388.200 256.300 378.500 L 256.414 368.800 261.007 368.800 L 265.600 368.800 265.605 367.700 C 265.644 358.699,273.930 350.813,284.200 350.004 L 287.800 349.721 284.400 349.689 C 282.016 349.667,280.313 349.890,278.700 350.435 " stroke="none" fill="#643c24" fill-rule="evenodd"></path></g></svg>